PathFileType	4	(X/Y/Z)	C:\Git\research_data\Projects\torsion_deformities_healthy_kinematics\simulations\P01\pre\dynamic04_l\marker_experimental.trc
DataRate	CameraRate	NumFrames	NumMarkers	Units	OrigDataRate	OrigDataStartFrame	OrigNumFrames
200	200	4	34	mm	200	174	694
Frame#	Time	C7			T10			CLAV			STRN			RBAK			LASI			RASI			SACR			LT1			LT2			LT3			LS1			LS2			LS3			LHEE			LTOE			RT1			RT2			RT3			RS1			RS2			RS3			RHEE			RTOE			LKNE			LANK			RKNE			RANK			LAJC			LKJC			RAJC			RKJC			RHJC			LHJC		
		X1	Y1	Z1	X2	Y2	Z2	X3	Y3	Z3	X4	Y4	Z4	X5	Y5	Z5	X6	Y6	Z6	X7	Y7	Z7	X8	Y8	Z8	X9	Y9	Z9	X10	Y10	Z10	X11	Y11	Z11	X12	Y12	Z12	X13	Y13	Z13	X14	Y14	Z14	X15	Y15	Z15	X16	Y16	Z16	X17	Y17	Z17	X18	Y18	Z18	X19	Y19	Z19	X20	Y20	Z20	X21	Y21	Z21	X22	Y22	Z22	X23	Y23	Z23	X24	Y24	Z24	X25	Y25	Z25	X26	Y26	Z26	X27	Y27	Z27	X28	Y28	Z28	X29	Y29	Z29	X30	Y30	Z30	X31	Y31	Z31	X32	Y32	Z32	X33	Y33	Z33	X34	Y34	Z34	

174	0.865000	-1066.027954	1011.871826	-323.988037	-1088.212402	835.409668	-341.230957	-947.939392	972.418213	-328.640686	-898.293945	844.935181	-330.929565	-1083.065063	946.388733	-229.973251	-953.742615	675.796448	-445.261871	-968.311829	665.818481	-231.089172	-1107.192261	724.245850	-355.121704	-933.515747	507.914124	-486.972565	-957.677917	414.596100	-493.510986	-828.412781	455.549713	-443.644073	-854.808228	278.265991	-484.127045	-902.825867	169.686340	-511.927185	-776.934204	220.800919	-468.279297	-818.518616	46.199451	-446.337860	-687.699158	107.028191	-431.417725	-1065.545044	511.733948	-201.206284	-1143.294922	459.787659	-222.418427	-1013.932739	403.437286	-203.910400	-1131.509521	273.895721	-213.936920	-1245.215332	239.942810	-180.338272	-1123.648071	179.156403	-225.926346	-1292.169434	75.681618	-243.563309	-1154.743408	47.541973	-273.313934	-887.990601	360.721100	-458.990173	-774.454407	70.168312	-471.494324	-1106.117554	347.305573	-230.808411	-1244.181396	63.948093	-218.655396	-773.730103	67.570946	-437.705505	-886.046631	355.209473	-407.838379	-1246.956787	69.330124	-255.030106	-1097.199219	343.675415	-283.768066	-1036.237416	612.460780	-267.527795	-1025.631921	619.724129	-423.432403	
175	0.870000	-1059.180420	1010.790039	-325.262421	-1080.946899	834.192261	-342.348206	-940.981506	971.495178	-329.792175	-891.019531	844.251526	-331.870331	-1076.456665	945.192810	-231.268677	-945.501465	674.872314	-445.642456	-960.926636	664.961426	-231.695557	-1099.540283	723.203552	-356.165039	-925.653320	506.787415	-487.374695	-949.919495	413.588165	-493.360046	-820.391907	454.789276	-444.151642	-847.372559	276.647278	-483.602905	-896.215759	167.991028	-510.328552	-769.690918	218.954575	-467.683990	-811.682251	45.071587	-445.214722	-681.233826	105.369247	-429.616486	-1059.237183	511.066864	-201.847870	-1137.185181	459.436829	-223.349487	-1008.175232	402.550507	-203.788086	-1126.871826	273.693726	-214.034409	-1241.267212	241.773178	-180.536499	-1120.772339	178.733185	-225.857925	-1290.901367	78.450638	-243.408386	-1154.154297	47.470222	-273.244110	-879.966797	359.769287	-458.743317	-768.159485	68.189743	-469.757080	-1100.552979	346.752869	-231.054459	-1243.294922	65.799507	-218.602676	-767.271545	65.852699	-435.953125	-877.834045	354.542053	-407.569183	-1245.922852	71.176186	-254.989120	-1091.328247	342.862701	-283.943115	-1028.650763	611.557755	-268.363541	-1017.421362	618.772802	-424.115176	
176	0.875000	-1052.314697	1009.775635	-326.582489	-1073.655884	833.036560	-343.467896	-934.016174	970.663208	-330.986359	-883.707642	843.669312	-332.847412	-1069.850952	944.077332	-232.625626	-937.220764	673.997559	-446.060272	-953.412659	664.190247	-232.379730	-1091.854492	722.208008	-357.157654	-917.717834	505.719147	-487.804230	-942.167236	412.634521	-493.128448	-812.291809	453.981720	-444.776978	-840.073303	274.948639	-482.983032	-890.132996	166.266251	-508.550476	-762.768127	216.802185	-466.982788	-805.705750	43.943253	-444.091980	-675.475281	103.035965	-427.588409	-1052.643311	510.356781	-202.507767	-1130.746948	458.954712	-224.218185	-1002.016479	401.678223	-203.757736	-1121.885864	273.455414	-214.135712	-1236.947510	243.698700	-180.720474	-1117.637329	178.310150	-225.800385	-1289.393433	81.507309	-243.283127	-1153.519775	47.352325	-273.201172	-871.985107	358.853333	-458.473389	-762.727905	65.882225	-467.821075	-1094.544800	346.117096	-231.294861	-1242.216431	67.794624	-218.541687	-761.666626	63.821911	-434.004150	-869.605713	353.946045	-407.278473	-1244.699707	73.166473	-254.939011	-1085.070190	341.982452	-284.120789	-1020.942285	610.737278	-269.232408	-1009.153619	617.877587	-424.804606	
177	0.880000	-1045.431274	1008.836182	-327.943420	-1066.345337	831.951477	-344.585480	-927.043396	969.926147	-332.218994	-876.363892	843.188293	-333.853668	-1063.246704	943.051270	-234.036606	-928.910889	673.167969	-446.515137	-945.779968	663.505005	-233.142776	-1084.147705	721.263184	-358.099091	-909.713562	504.708618	-488.244568	-934.431946	411.729919	-492.826935	-804.143372	453.090118	-445.481537	-832.870911	273.218048	-482.267914	-884.466187	164.569153	-506.666565	-756.117493	214.414871	-466.158630	-800.516968	42.860931	-443.009430	-670.330139	100.078232	-425.380280	-1045.750488	509.599121	-203.184479	-1123.959717	458.325226	-225.015152	-995.424683	400.821228	-203.826950	-1116.530640	273.176880	-214.239441	-1232.237305	245.720947	-180.910660	-1114.219849	177.888626	-225.748901	-1287.607544	84.868843	-243.203873	-1152.840210	47.180603	-273.188873	-864.088745	357.956421	-458.186096	-758.033142	63.344624	-465.732666	-1088.053711	345.385254	-231.528015	-1240.922729	69.943626	-218.488525	-756.805664	61.560886	-431.905640	-861.422424	353.390167	-406.973755	-1243.256470	75.309883	-254.896576	-1078.389893	341.026367	-284.301605	-1013.125156	610.002263	-270.134193	-1000.842059	617.038280	-425.499726	
